<svg xmlns="http://www.w3.org/2000/svg" xmlns:svg="http://www.w3.org/2000/svg" id="svg8" width="115.8" height="30" version="1.1" viewBox="0 0 30.639 7.938"><style id="style35"/><metadata id="metadata5"/><g id="layer1" transform="translate(-90.222917,-144.19792)"><path id="path14" d="m 95.906247,146.27227 c 0.529165,0 1.008939,0.12347 1.439324,0.37041 0.437447,0.23989 0.77964,0.58209 1.02658,1.02658 0.246947,0.43745 0.37042,0.94897 0.37042,1.53458 0,0.58561 -0.123473,1.10067 -0.37042,1.54516 -0.24694,0.43745 -0.589133,0.77964 -1.02658,1.02658 -0.430385,0.23989 -0.910159,0.35984 -1.439324,0.35984 -1.979164,0 -3.831247,0 -5.68333,0 l 0.330566,-1.4726 1.957889,-0.0178 c -0.682235,-2.01853 -1.792931,-5.05462 -2.288455,-6.4471 l 1.897472,2e-5 1.197269,3.28196 c 0.392654,-0.78934 1.483869,-1.20763 2.588565,-1.20763 z m -0.285749,4.50848 c 0.423332,0 0.769053,-0.14111 1.037163,-0.42333 0.275166,-0.28927 0.412749,-0.6738 0.412749,-1.15358 0,-0.47977 -0.137583,-0.86077 -0.412749,-1.14299 -0.26811,-0.28928 -0.613831,-0.43392 -1.037163,-0.43392 -0.423332,0 -0.772581,0.14464 -1.047747,0.43392 -0.26811,0.28222 -0.402165,0.66322 -0.402165,1.14299 0,0.47978 0.134055,0.86431 0.402165,1.15358 0.275166,0.28222 0.624415,0.42333 1.047747,0.42333 z" style="font-style:normal;font-variant:normal;font-weight:700;font-stretch:normal;font-size:10.58329999999999949px;line-height:1.25;font-family:'Montserrat Alternates';-inkscape-font-specification:'Montserrat Alternates Bold';fill:#0055d6;fill-opacity:1;stroke:none;stroke-width:.1;stroke-miterlimit:4;stroke-dasharray:none;stroke-opacity:1"/><path id="path16" d="m 105.61592,146.35693 v 5.69382 h -1.57691 v -0.65617 q -0.61384,0.74084 -1.778,0.74084 -0.80433,0 -1.46049,-0.35984 -0.64558,-0.35983 -1.015991,-1.02658 -0.37042,-0.66674 -0.37042,-1.54516 0,-0.87841 0.37042,-1.54516 0.370411,-0.66675 1.015991,-1.02658 0.65616,-0.35983 1.46049,-0.35983 1.09008,0 1.70391,0.68791 v -0.60325 z m -3.06916,4.42382 q 0.62442,0 1.03716,-0.42333 0.41275,-0.43391 0.41275,-1.15358 0,-0.71966 -0.41275,-1.14299 -0.41274,-0.43392 -1.03716,-0.43392 -0.635,0 -1.04775,0.43392 -0.41274,0.42333 -0.41274,1.14299 0,0.71967 0.41274,1.15358 0.41275,0.42333 1.04775,0.42333 z" style="font-style:normal;font-variant:normal;font-weight:700;font-stretch:normal;font-size:10.58329999999999949px;line-height:1.25;font-family:'Montserrat Alternates';-inkscape-font-specification:'Montserrat Alternates Bold';fill:#0055d6;fill-opacity:1;stroke:none;stroke-width:.1;stroke-miterlimit:4;stroke-dasharray:none;stroke-opacity:1"/><path id="path18" d="m 109.1767,152.13542 q -0.96308,0 -1.50283,-0.508 -0.53975,-0.51858 -0.53975,-1.4605 v -5.96898 h 1.651 v 5.87373 q 0,0.35983 0.17992,0.56092 0.19049,0.1905 0.52916,0.1905 0.127,0 0.254,-0.0317 0.13758,-0.0318 0.21167,-0.0741 l 0.0741,1.28058 q -0.41275,0.13759 -0.85725,0.13759 z" style="font-style:normal;font-variant:normal;font-weight:700;font-stretch:normal;font-size:10.58329999999999949px;line-height:1.25;font-family:'Montserrat Alternates';-inkscape-font-specification:'Montserrat Alternates Bold';fill:#0055d6;fill-opacity:1;stroke:none;stroke-width:.1;stroke-miterlimit:4;stroke-dasharray:none;stroke-opacity:1"/><path id="path20" d="m 114.28381,151.77558 q -0.24342,0.17992 -0.60325,0.27517 -0.34925,0.0847 -0.73025,0.0847 -1.02658,0 -1.57691,-0.51859 -0.55033,-0.51858 -0.55033,-1.52399 v -4.99532 h 1.65099 v 1.38641 h 1.40758 v 1.27 h -1.40758 v 2.31774 q 0,0.35983 0.17992,0.56092 0.17991,0.1905 0.51858,0.1905 0.381,0 0.67733,-0.21167 z" style="font-style:normal;font-variant:normal;font-weight:700;font-stretch:normal;font-size:10.58329999999999949px;line-height:1.25;font-family:'Montserrat Alternates';-inkscape-font-specification:'Montserrat Alternates Bold';fill:#0055d6;fill-opacity:1;stroke:none;stroke-width:.1;stroke-miterlimit:4;stroke-dasharray:none;stroke-opacity:1"/><path id="path22" d="m 117.73958,152.13542 q -0.89958,0 -1.61924,-0.37042 -0.70908,-0.381 -1.11125,-1.04775 -0.40216,-0.66674 -0.40216,-1.51341 0,-0.84666 0.40216,-1.51341 0.40217,-0.66675 1.11125,-1.03716 0.71966,-0.381 1.61924,-0.381 0.89958,0 1.60866,0.381 0.70909,0.37041 1.11125,1.03716 0.40217,0.66675 0.40217,1.51341 0,0.84667 -0.40217,1.51341 -0.40216,0.66675 -1.11125,1.04775 -0.70908,0.37042 -1.60866,0.37042 z m 0,-1.35467 q 0.635,0 1.03717,-0.42333 0.41274,-0.43391 0.41274,-1.15358 0,-0.71966 -0.41274,-1.14299 -0.40217,-0.43392 -1.03717,-0.43392 -0.635,0 -1.04774,0.43392 -0.41275,0.42333 -0.41275,1.14299 0,0.71967 0.41275,1.15358 0.41274,0.42333 1.04774,0.42333 z" style="font-style:normal;font-variant:normal;font-weight:700;font-stretch:normal;font-size:10.58329999999999949px;line-height:1.25;font-family:'Montserrat Alternates';-inkscape-font-specification:'Montserrat Alternates Bold';fill:#0055d6;fill-opacity:1;stroke:none;stroke-width:.1;stroke-miterlimit:4;stroke-dasharray:none;stroke-opacity:1"/></g></svg>